# xmcd
#
# Track frame offsets:
#	150
#	17105
#	36919
#	56315
#	75002
#	93399
#	111037
#	125889
#	142029
#	159174
#	161635
#	176637
#	192540
#	206625
#
# Disc length: 2965 seconds
#
# Revision: 6
# Processed by: cddbd v1.5.2PL0 Copyright (c) Steve Scherf et al.
# Submitted via: Jack! The Knife
#
DISCID=b80b930e
DTITLE=Ligabue - Miss Mondo
DYEAR=1999
DGENRE=Rock
TTITLE0=Si viene e si va
TTITLE1=Uno dei tanti
TTITLE2=Almeno credo
TTITLE3=E
TTITLE4=Baby, è un mondo super
TTITLE5=Una vita da mediano
TTITLE6=Da adesso in poi
TTITLE7=L'odore del sesso
TTITLE8=Kay è stata qui
TTITLE9=Qualcuno  ha visto, per caso, il mio cane blu elettrico monofase?
TTITLE10=Sulla mia strada
TTITLE11=Forse mi trovo
TTITLE12=Miss Mondo '99
TTITLE13=La porta dei sogni
EXTD=
EXTT0=
EXTT1=
EXTT2=
EXTT3=
EXTT4=
EXTT5=
EXTT6=
EXTT7=
EXTT8=
EXTT9=
EXTT10=
EXTT11=
EXTT12=
EXTT13=
PLAYORDER=
